<?xml version="1.0" standalone="no"?>
<!DOCTYPE svg PUBLIC "-//W3C//DTD SVG 20010904//EN"
 "http://www.w3.org/TR/2001/REC-SVG-20010904/DTD/svg10.dtd">
<svg version="1.0" xmlns="http://www.w3.org/2000/svg"
 width="1668.000000pt" height="1668.000000pt" viewBox="0 0 1668.000000 1668.000000"
 preserveAspectRatio="xMidYMid meet">
<metadata>
Created by potrace 1.14, written by Peter Selinger 2001-2017
</metadata>
<g transform="translate(0.000000,1668.000000) scale(0.100000,-0.100000)"
fill="#000000" stroke="none">
<path d="M8270 16543 c-8 -3 -67 -36 -130 -73 -63 -36 -140 -79 -170 -94 -30
-15 -59 -33 -65 -39 -10 -12 -377 -227 -387 -227 -8 0 -422 -241 -428 -249 -3
-4 -34 -23 -70 -42 -36 -19 -150 -84 -255 -143 -104 -60 -257 -147 -340 -194
-82 -47 -152 -88 -155 -92 -8 -11 -85 -58 -152 -92 -35 -17 -154 -85 -266
-150 -112 -65 -206 -118 -209 -118 -10 0 -181 -100 -185 -108 -3 -8 -284 -172
-294 -172 -3 0 -105 -58 -227 -129 -122 -70 -231 -131 -243 -135 -11 -3 -30
-15 -41 -25 -19 -18 -416 -251 -427 -251 -9 0 -390 -223 -403 -236 -8 -7 -36
-24 -62 -38 -27 -13 -139 -76 -249 -140 -111 -64 -203 -116 -207 -116 -10 0
-270 -153 -280 -165 -8 -10 -141 -86 -215 -124 -8 -4 -110 -62 -226 -129 -116
-67 -214 -122 -217 -122 -10 0 -131 -72 -147 -87 -8 -8 -51 -35 -95 -61 -70
-41 -83 -54 -107 -101 -54 -106 -22 -227 74 -277 14 -7 33 -20 41 -29 17 -16
200 -126 230 -138 9 -3 108 -60 220 -125 111 -65 237 -138 280 -161 43 -23 86
-50 96 -59 9 -9 92 -60 184 -112 326 -185 588 -339 603 -354 8 -9 19 -16 23
-16 4 0 108 -58 230 -130 122 -71 224 -130 227 -130 9 0 319 -183 325 -192 6
-9 137 -88 146 -88 3 0 102 -57 221 -127 120 -70 231 -133 247 -141 52 -26
169 -96 186 -112 8 -8 74 -48 145 -88 71 -41 202 -116 292 -167 90 -52 179
-99 199 -106 75 -25 121 -8 360 132 123 71 225 129 229 129 8 0 178 101 184
110 5 8 224 136 275 161 17 8 128 72 247 142 120 70 222 127 227 127 6 0 21
10 34 23 14 12 116 74 226 137 473 270 574 329 580 338 3 6 38 27 76 47 39 21
166 93 283 161 117 68 215 124 218 124 10 0 219 123 229 135 10 12 217 135
227 135 3 0 95 52 204 116 110 64 237 137 284 161 47 25 90 50 95 57 12 15
192 121 249 147 47 21 99 24 145 8 36 -13 253 -136 261 -149 6 -9 147 -93 172
-103 10 -3 119 -65 242 -137 123 -71 226 -130 229 -130 10 0 152 -83 162 -95
10 -12 261 -160 291 -172 9 -3 120 -66 246 -140 126 -73 234 -133 239 -133 5
0 17 -8 27 -17 16 -17 415 -253 427 -253 11 0 390 -223 393 -232 2 -5 32 -23
65 -40 34 -17 157 -86 274 -154 117 -68 215 -124 218 -124 10 0 220 -123 230
-135 10 -11 219 -135 229 -135 2 0 98 -54 213 -121 114 -67 246 -141 293 -166
46 -25 89 -51 95 -58 10 -12 205 -128 330 -195 230 -124 226 -122 286 -118 67
5 129 41 159 91 10 18 24 37 29 44 13 14 16 2349 3 2355 -4 2 -18 20 -31 40
-13 23 -46 52 -84 74 -34 20 -66 42 -72 48 -10 12 -221 136 -280 164 -16 8
-120 67 -230 131 -110 63 -221 125 -246 137 -26 13 -53 29 -61 37 -14 14 -394
237 -404 237 -11 0 -409 234 -428 252 -11 10 -24 18 -29 18 -4 0 -114 61 -242
135 -129 74 -237 135 -240 135 -10 0 -270 153 -280 165 -10 12 -169 105 -180
105 -3 0 -106 59 -230 130 -124 72 -233 134 -243 137 -29 11 -136 75 -147 87
-10 12 -307 186 -317 186 -4 0 -104 57 -223 126 -120 69 -227 129 -239 134
-11 4 -31 16 -42 26 -20 18 -119 75 -613 356 -107 60 -202 118 -212 127 -11
10 -40 28 -66 41 -27 13 -138 75 -248 139 -110 63 -213 121 -230 130 -63 30
-240 134 -250 145 -5 7 -62 41 -125 76 -63 35 -214 120 -335 189 -121 69 -247
140 -278 156 -32 17 -66 37 -76 46 -25 24 -319 192 -369 212 -41 16 -121 21
-152 10z"/>
<path d="M1332 12219 c-55 -16 -115 -85 -130 -146 -9 -41 -10 -547 -6 -2235 6
-2398 1 -2233 67 -2295 34 -32 148 -103 165 -103 6 0 12 -4 14 -9 3 -9 444
-271 456 -271 10 0 337 -194 347 -206 6 -6 46 -31 90 -54 44 -24 171 -96 283
-161 112 -66 205 -119 208 -119 10 0 219 -124 229 -136 6 -6 64 -42 130 -80
66 -37 219 -125 340 -194 121 -70 243 -139 272 -153 28 -15 53 -30 55 -35 3
-8 364 -222 374 -222 11 0 389 -223 399 -235 6 -7 33 -24 61 -38 28 -14 142
-79 255 -145 112 -65 218 -125 234 -133 57 -28 250 -142 260 -154 11 -12 200
-125 210 -125 4 0 44 -22 90 -49 96 -57 153 -75 204 -66 50 9 398 197 426 229
10 12 202 126 211 126 3 0 102 57 221 126 118 69 222 128 231 132 26 10 145
80 151 90 6 9 316 192 326 192 10 0 440 252 450 264 6 7 17 15 26 18 9 3 120
66 247 140 127 73 301 173 386 221 85 49 156 92 158 96 3 8 142 91 152 91 2 0
109 61 236 135 127 74 233 135 236 135 9 0 161 90 181 107 11 10 79 52 152 93
72 41 220 126 329 188 181 104 252 157 252 188 0 7 6 14 13 17 14 5 15 276 0
286 -5 3 -22 143 -37 311 -15 168 -43 469 -62 670 -39 425 -150 1616 -224
2425 -41 445 -36 422 -97 491 -66 75 -219 87 -284 22 -8 -8 -62 -42 -119 -75
-58 -33 -211 -121 -340 -195 -129 -74 -262 -150 -295 -168 -33 -18 -64 -38
-70 -45 -10 -12 -293 -179 -350 -206 -61 -30 -421 -245 -437 -261 -10 -10 -22
-18 -27 -18 -5 0 -113 -61 -240 -135 -126 -74 -233 -135 -235 -135 -9 0 -281
-161 -286 -170 -6 -9 -175 -110 -185 -110 -3 0 -101 -56 -218 -123 -117 -68
-255 -148 -307 -177 -52 -30 -98 -58 -101 -63 -4 -5 -70 -46 -149 -92 -158
-93 -206 -107 -277 -82 -37 12 -289 155 -317 179 -11 9 -392 229 -655 378 -83
47 -151 88 -151 92 0 6 -154 98 -163 98 -3 0 -109 61 -236 135 -126 74 -233
135 -236 135 -10 0 -165 93 -165 99 0 3 -63 42 -140 86 -359 204 -636 365
-646 373 -14 13 -441 262 -448 262 -10 0 -350 203 -368 220 -10 9 -44 30 -76
46 -31 16 -155 86 -275 156 -120 71 -221 128 -223 128 -10 0 -219 124 -222
132 -2 4 -45 31 -95 60 -76 43 -101 52 -147 55 -30 1 -70 -2 -88 -8z"/>
<path d="M10732 11685 c-70 -31 -122 -115 -122 -199 0 -31 24 -320 54 -643 30
-324 69 -750 87 -948 18 -198 36 -362 39 -365 4 -3 26 -212 49 -465 121 -1336
140 -1525 155 -1557 28 -58 78 -102 186 -162 58 -33 204 -116 325 -186 121
-69 241 -137 268 -151 26 -13 59 -34 72 -45 14 -12 95 -62 180 -110 294 -168
619 -357 630 -366 13 -11 368 -218 455 -265 122 -66 325 -185 335 -197 11 -12
150 -96 160 -96 3 0 110 -61 236 -135 127 -74 234 -135 237 -135 10 0 146 -82
157 -94 10 -12 287 -176 297 -176 3 0 110 -61 237 -135 126 -74 235 -135 241
-135 5 0 18 -8 29 -19 10 -10 47 -36 82 -57 54 -32 75 -38 134 -42 64 -3 74
-1 116 26 32 21 54 45 70 79 13 26 27 50 32 51 10 5 9 3799 -1 3804 -4 2 -18
20 -31 41 -18 30 -58 58 -191 137 -92 55 -189 111 -216 125 -27 14 -51 29 -54
33 -6 9 -437 262 -445 262 -9 0 -349 200 -355 209 -6 9 -99 65 -122 73 -9 4
-109 61 -222 128 -113 66 -214 124 -223 127 -27 10 -236 135 -250 149 -13 12
-218 134 -227 134 -3 0 -96 53 -208 119 -112 65 -234 135 -273 155 -38 21 -74
43 -80 50 -8 10 -312 190 -365 217 -64 32 -420 243 -420 249 0 4 -15 14 -32
21 -18 7 -135 73 -260 146 -125 73 -230 133 -232 133 -9 0 -281 161 -286 170
-3 4 -27 20 -54 34 -56 30 -139 35 -194 11z"/>
<path d="M10640 6833 c-8 -3 -83 -46 -167 -94 -84 -49 -155 -89 -158 -89 -10
0 -269 -154 -280 -166 -11 -12 -168 -106 -197 -116 -9 -4 -113 -63 -231 -132
-119 -69 -218 -126 -221 -126 -9 0 -131 -72 -141 -84 -11 -12 -320 -196 -329
-196 -14 0 -456 -263 -456 -271 0 -5 -5 -9 -12 -9 -6 0 -111 -58 -234 -130
-122 -71 -225 -130 -228 -130 -9 0 -321 -183 -331 -195 -10 -11 -132 -85 -141
-85 -2 0 -102 -57 -222 -127 -119 -70 -230 -134 -247 -142 -48 -23 -200 -113
-205 -121 -5 -8 -245 -150 -254 -150 -3 0 -96 -53 -208 -119 -112 -65 -234
-135 -271 -155 -38 -20 -77 -45 -88 -55 -20 -19 -83 -41 -115 -41 -34 0 -95
21 -112 38 -18 17 -139 92 -149 92 -4 0 -106 58 -227 129 -122 70 -266 153
-321 184 -55 30 -110 64 -121 74 -12 10 -80 52 -153 93 -72 41 -227 130 -344
198 -116 68 -234 135 -262 148 -27 14 -52 30 -56 35 -5 9 -377 229 -386 229
-10 0 -389 223 -398 235 -6 7 -33 24 -60 38 -28 14 -150 83 -272 154 -122 70
-276 159 -342 197 -66 37 -121 71 -123 75 -3 8 -211 131 -220 131 -3 0 -104
58 -224 128 -121 71 -245 141 -277 158 -32 16 -67 37 -77 46 -23 22 -228 144
-283 169 -122 55 -274 -18 -297 -143 -5 -24 -6 -529 -4 -1123 5 -926 7 -1086
20 -1122 19 -52 99 -126 181 -167 32 -17 154 -85 271 -153 118 -68 216 -123
218 -123 10 0 240 -135 249 -146 10 -12 219 -134 229 -134 4 0 102 -55 219
-123 116 -67 238 -136 269 -151 32 -16 66 -37 75 -46 19 -17 340 -206 371
-217 31 -12 423 -242 438 -258 9 -8 19 -15 24 -15 4 0 106 -57 226 -126 119
-69 224 -129 233 -132 30 -11 325 -185 343 -202 10 -9 59 -38 110 -65 51 -27
184 -102 296 -167 113 -65 207 -118 210 -118 9 0 181 -101 184 -108 3 -8 215
-132 278 -163 19 -9 132 -73 251 -142 119 -69 226 -128 236 -131 11 -3 29 -15
40 -25 19 -18 398 -241 409 -241 11 0 408 -233 427 -251 12 -10 25 -19 30 -19
5 0 114 -61 243 -135 128 -74 235 -135 238 -135 10 0 291 -164 301 -176 11
-12 149 -94 160 -94 3 0 70 -37 147 -82 219 -127 222 -127 551 64 104 60 199
118 210 129 11 10 25 19 30 19 5 0 115 61 243 135 128 74 236 135 239 135 10
0 290 164 300 176 11 12 149 94 160 94 3 0 107 59 230 130 124 72 227 130 230
130 11 0 170 93 180 105 10 12 288 175 298 175 3 0 88 48 189 106 101 58 217
124 258 146 41 23 79 46 86 52 6 7 105 65 220 131 505 286 579 329 582 337 2
5 25 19 50 31 26 13 137 75 247 138 110 64 214 123 230 131 65 31 271 152 280
163 6 7 58 39 115 71 58 31 193 108 300 169 107 62 232 132 278 156 45 24 90
50 100 59 18 17 314 191 345 203 9 3 118 65 241 137 124 71 229 130 235 130 5
0 11 4 13 9 3 10 318 195 448 263 41 22 85 49 97 61 55 50 76 144 52 230 -13
48 -69 104 -134 136 -78 38 -428 244 -447 263 -10 10 -22 18 -27 18 -5 0 -114
61 -241 135 -127 74 -234 135 -236 135 -10 0 -269 153 -279 164 -5 7 -53 36
-105 66 -52 29 -199 113 -326 187 -127 73 -234 133 -237 133 -9 0 -140 79
-146 88 -6 9 -318 192 -327 192 -3 0 -106 59 -228 130 -123 72 -228 130 -234
130 -7 0 -12 4 -12 9 0 8 -442 271 -455 271 -10 0 -320 182 -330 194 -10 12
-116 75 -146 88 -10 4 -115 64 -235 134 -217 127 -218 127 -288 130 -39 2 -78
1 -86 -3z"/>
</g>
</svg>
