<svg xmlns="http://www.w3.org/2000/svg" viewBox="0 0 213.13 330.91">
<defs><style>.cls-1{fill:#79c5e3;}.cls-2{fill:#4e4e5e;}</style></defs>
<g id="Layer_2" data-name="Layer 2">
<g id="Layer_1-2" data-name="Layer 1">
<g id="logo">
<path class="cls-1" d="M213.13,104.54c0,57.74-47.71,104.54-106.56,104.54S0,162.28,0,104.54,47.71,0,106.57,0,213.13,46.8,213.13,104.54ZM106.57,9.81a94.73,94.73,0,1,0,94.72,94.73A94.73,94.73,0,0,0,106.57,9.81Z"/>
<path class="cls-1" d="M72.82,110.93C52.34,96.37,26.43,98.2,6.51,113.2c.31,2.59.67,5.19,1,7.81C55,93.37,108.76,150.87,87.9,206.07q.85.12,1.71.21C108,173.15,100.6,130.68,72.82,110.93Z"/>
<path class="cls-1" d="M138.64,152.58c-23.3,5.21-41.41,26.57-48,53.17a47,47,0,0,0,4.77,1c12.71-36.5,53.06-55.19,81.15-36.15,1.53-2.42,2.9-5,4.27-7.6C168.89,153.34,154,149.14,138.64,152.58Z"/>
<polyline class="cls-1" points="56.31 104.22 116.94 4.86 128.06 8.86 147.83 155.01 119.86 168.8 119.37 20.34 77.93 118.58 56.2 105.56"/>
<path class="cls-2" d="M49.34,280.67l-5.71-16.31H21.31L15.6,280.67H11.09l18.56-52.45h5.79l18.63,52.45ZM32.58,232.51h-.3l-9.84,27.95h20Z"/>
<path class="cls-2" d="M96.75,256H68v24.65H63.46V228.22H68V252H96.75V228.22h4.5v52.45h-4.5Z"/>
<path class="cls-2" d="M113.42,254.45c0-17.74,8.12-27.13,21.49-27.13s21.41,9.39,21.41,27.13-8.11,27.12-21.41,27.12S113.42,272.18,113.42,254.45Zm38.1,3.3v-6.61c0-12.47-6.62-19.76-16.61-19.76s-16.68,7.29-16.68,19.76v6.61c0,12.47,6.61,19.76,16.68,19.76S151.52,270.22,151.52,257.75Z"/>
<path class="cls-2" d="M190.36,228.22V267c0,9.24-5.64,14.58-14.2,14.58-7.37,0-12.47-4.43-13.83-11l4-1c1.2,4.59,4.43,8,10,8,6.23,0,9.54-3.91,9.54-11.27V232.21H167.67v-4Z"/>
<path class="cls-2" d="M23.74,330.32V295.53H42.33v1H24.84v15.65H41.63v1H24.84v17.15Z"/>
<path class="cls-2" d="M49.6,295.73v-.35a1.15,1.15,0,0,1,2.29,0v.35a1.15,1.15,0,0,1-2.29,0Zm.65,9.37h1v25.22h-1Z"/>
<path class="cls-2" d="M61.76,330.32V305.1h1v3.79H63c.9-2.25,3.34-4.39,7.88-4.39,5.63,0,8.67,3.34,8.67,9.62v16.2h-1v-16c0-6.13-2.79-8.87-7.72-8.87-4.14,0-7.93,2.24-7.93,6.83v18Z"/>
<path class="cls-2" d="M105.26,330.32c-1,0-1.44-.45-1.44-1.45v-2.39h-.15c-1.25,2.39-3.64,4.43-8.28,4.43-5.18,0-8.12-2.54-8.12-7.07,0-4.19,2.24-7.23,9.47-7.23h7.08v-3.69c0-5.18-2.5-7.47-7.18-7.47-3.79,0-6.23,1.44-7.63,4.73l-.89-.4c1.39-3.24,3.83-5.28,8.52-5.28,5.48,0,8.22,2.94,8.22,8.27v16.6h4.24v.95Zm-1.44-7.38v-5.43h-7c-5.93,0-8.37,2.24-8.37,5.58v1.49c0,3.49,2.89,5.39,7,5.39C99.88,330,103.82,327.62,103.82,322.94Z"/>
<path class="cls-2" d="M115.32,330.32V305.1h1.05v3.79h.15c.9-2.25,3.34-4.39,7.87-4.39,5.64,0,8.68,3.34,8.68,9.62v16.2h-1v-16c0-6.13-2.79-8.87-7.73-8.87-4.13,0-7.92,2.24-7.92,6.83v18Z"/>
<path class="cls-2" d="M140.79,317.71c0-8.72,3.88-13.21,10.46-13.21a8.75,8.75,0,0,1,8.22,5l-.89.45c-1.6-2.89-3.74-4.48-7.33-4.48-6,0-9.32,4.28-9.32,11.06v2.39c0,6.78,3.34,11.07,9.32,11.07a8.37,8.37,0,0,0,7.88-4.39l.79.55c-1.64,2.84-4.28,4.78-8.67,4.78C144.67,330.91,140.79,326.43,140.79,317.71Z"/>
<path class="cls-2" d="M164.55,317.71c0-8.62,3.89-13.21,10.37-13.21,6.08,0,10.22,4.84,10.22,12.56v.5H165.7v1.34c0,6.78,3.44,11.07,9.42,11.07,4.24,0,7.18-2.1,8.72-6.18l.9.35a9.7,9.7,0,0,1-9.62,6.77C168.54,330.91,164.55,326.43,164.55,317.71Zm1.15-1.2v.1H184v-.2c0-6.63-3.64-11-9.07-11C169,305.45,165.7,309.73,165.7,316.51Z"/>
</g></g></g>
</svg>