<?xml version="1.0" standalone="no"?>
<!DOCTYPE svg PUBLIC "-//W3C//DTD SVG 20010904//EN"
 "http://www.w3.org/TR/2001/REC-SVG-20010904/DTD/svg10.dtd">
<svg version="1.0" xmlns="http://www.w3.org/2000/svg"
 width="1682.000000pt" height="1604.000000pt" viewBox="0 0 1682.000000 1604.000000"
 preserveAspectRatio="xMidYMid meet">
<metadata>
Created by potrace 1.16, written by Peter Selinger 2001-2019
</metadata>
<g transform="translate(0.000000,1604.000000) scale(0.100000,-0.100000)"
fill="#000000" stroke="none">
<path d="M1177 15103 c-4 -3 -7 -87 -7 -185 l0 -178 116 0 c90 0 122 4 144 17
56 33 67 107 22 152 -26 26 -26 28 -10 46 11 11 18 34 18 55 0 47 -33 79 -92
91 -52 10 -182 12 -191 2z"/>
<path d="M2037 15104 c-4 -4 -7 -88 -7 -186 l0 -178 40 0 40 0 0 44 c0 70 20
74 55 10 29 -53 30 -54 73 -54 l44 0 -32 53 c-17 28 -38 67 -47 85 l-17 32 42
43 c23 24 42 46 42 50 0 4 -20 7 -44 7 -38 0 -48 -5 -79 -40 l-36 -39 -3 87
-3 87 -30 3 c-17 2 -34 0 -38 -4z"/>
<path d="M12464 15096 c-3 -8 -4 -25 -2 -38 3 -20 9 -23 56 -26 l52 -3 0 -145
0 -144 45 0 45 0 0 145 0 145 50 0 50 0 0 40 0 40 -145 0 c-117 0 -147 -3
-151 -14z"/>
<path d="M13100 14925 l0 -185 39 0 40 0 3 47 c2 25 8 48 14 50 6 2 23 -19 38
-47 26 -48 29 -50 72 -50 l45 0 -16 30 c-9 16 -29 53 -45 81 l-30 50 19 27
c10 15 28 36 40 46 31 28 26 36 -24 36 -39 0 -49 -5 -80 -37 l-34 -38 -1 88 0
87 -40 0 -40 0 0 -185z"/>
<path d="M14648 15079 c-29 -15 -38 -26 -38 -44 0 -16 -6 -25 -15 -25 -10 0
-15 -11 -15 -35 0 -24 5 -35 15 -35 12 0 15 -16 15 -80 0 -74 2 -83 26 -107
21 -21 32 -25 66 -20 22 3 42 7 44 10 2 2 1 18 -2 36 -5 23 -11 31 -22 26 -23
-9 -32 13 -32 78 0 54 1 57 25 57 22 0 25 4 25 35 0 30 -3 35 -24 35 -22 0
-25 5 -28 44 l-3 44 -37 -19z"/>
<path d="M1530 14875 l0 -135 40 0 40 0 0 89 c0 95 11 118 51 108 23 -6 46 30
36 57 -7 18 -49 21 -78 6 -13 -7 -19 -7 -19 0 0 5 -16 10 -35 10 l-35 0 0
-135z"/>
<path d="M1784 14994 c-48 -23 -68 -69 -62 -139 4 -49 10 -63 35 -86 66 -58
181 -40 216 34 35 72 10 162 -53 194 -34 17 -98 16 -136 -3z"/>
<path d="M2341 14985 c-55 -47 -66 -151 -20 -209 44 -56 155 -55 198 1 28 35
27 40 -14 47 -27 5 -39 2 -55 -14 -25 -25 -35 -25 -60 0 -34 34 -24 40 65 40
l85 0 0 30 c0 48 -25 97 -59 114 -46 24 -104 21 -140 -9z"/>
<path d="M2580 14875 l0 -135 40 0 40 0 0 89 c0 95 11 118 51 108 23 -6 46 30
36 57 -7 18 -49 21 -78 6 -13 -7 -19 -7 -19 0 0 5 -16 10 -35 10 l-35 0 0
-135z"/>
<path d="M2789 14981 c-37 -37 -37 -48 2 -56 22 -5 36 -2 49 10 22 20 64 16
68 -6 2 -12 -11 -19 -52 -28 -74 -16 -100 -39 -100 -84 0 -20 8 -45 18 -56 25
-27 80 -35 116 -17 17 8 32 10 36 5 3 -5 21 -9 41 -9 34 0 35 1 29 31 -3 17
-6 67 -6 111 0 70 -3 82 -25 103 -20 21 -34 25 -85 25 -55 0 -65 -3 -91 -29z"/>
<path d="M3074 14974 c-30 -31 -34 -42 -34 -90 0 -88 41 -144 105 -144 17 0
41 7 53 16 20 14 22 14 22 -5 0 -52 -38 -67 -96 -36 -44 23 -74 20 -74 -8 0
-55 102 -91 180 -64 59 21 71 58 68 222 l-3 140 -28 3 c-16 2 -34 -1 -40 -7
-8 -6 -18 -6 -27 -1 -8 6 -32 10 -54 10 -31 0 -45 -7 -72 -36z"/>
<path d="M3381 14985 c-55 -47 -66 -151 -20 -209 44 -56 155 -55 198 1 28 35
27 40 -14 47 -27 5 -39 2 -55 -14 -25 -25 -35 -25 -60 0 -34 34 -24 40 65 40
l85 0 0 30 c0 48 -25 97 -59 114 -46 24 -104 21 -140 -9z"/>
<path d="M12838 14994 c-38 -20 -62 -70 -61 -126 1 -76 45 -125 120 -135 87
-11 153 49 153 140 0 88 -50 137 -137 137 -26 -1 -60 -7 -75 -16z"/>
<path d="M13396 14985 c-52 -48 -63 -138 -23 -196 31 -46 62 -61 121 -56 40 4
55 10 78 36 15 17 28 36 28 41 0 5 -16 12 -37 16 -28 5 -39 3 -49 -10 -16 -23
-53 -17 -72 12 l-14 22 87 0 88 0 -5 52 c-4 42 -11 57 -37 80 -26 23 -40 28
-85 28 -43 0 -58 -5 -80 -25z"/>
<path d="M13650 14875 l0 -135 40 0 40 0 0 84 c0 95 18 134 57 122 27 -8 33
-33 33 -128 l0 -78 40 0 40 0 0 100 c0 105 -13 151 -45 164 -25 9 -84 7 -105
-4 -13 -7 -21 -7 -25 0 -3 5 -22 10 -41 10 l-34 0 0 -135z"/>
<path d="M13950 14875 l0 -135 40 0 40 0 0 135 0 135 -40 0 -40 0 0 -135z"/>
<path d="M14070 14975 l0 -34 55 -3 54 -3 -59 -68 c-44 -50 -60 -76 -60 -98
l0 -29 126 0 125 0 -3 33 -3 32 -63 3 -63 3 61 70 c44 51 60 78 60 100 l0 29
-115 0 -115 0 0 -35z"/>
<path d="M14372 14994 c-32 -22 -47 -54 -31 -65 23 -14 66 -10 73 7 8 20 61
15 61 -5 0 -9 -20 -20 -55 -28 -58 -14 -100 -49 -100 -83 0 -58 52 -98 112
-85 18 3 59 6 90 5 l57 -1 -10 33 c-5 18 -9 70 -9 115 0 76 -2 83 -26 102 -33
26 -128 29 -162 5z"/>
<path d="M14780 14875 l0 -135 40 0 40 0 0 135 0 135 -40 0 -40 0 0 -135z"/>
<path d="M14968 14994 c-38 -20 -62 -70 -61 -126 1 -76 45 -125 120 -135 87
-11 153 49 153 140 0 88 -50 137 -137 137 -26 -1 -60 -7 -75 -16z"/>
<path d="M15220 14875 l0 -135 40 0 40 0 0 84 c0 95 18 134 57 122 27 -8 33
-33 33 -128 l0 -78 40 0 40 0 0 100 c0 105 -13 151 -45 164 -25 9 -84 7 -105
-4 -13 -7 -21 -7 -25 0 -3 5 -22 10 -41 10 l-34 0 0 -135z"/>
<path d="M7358 14894 c-5 -4 -8 -88 -8 -186 l0 -178 40 0 40 0 0 64 0 63 66 6
c78 6 114 28 131 80 16 48 -1 102 -40 131 -22 16 -46 21 -125 24 -53 2 -100 1
-104 -4z"/>
<path d="M9278 14868 c-27 -15 -38 -29 -38 -45 0 -14 -6 -23 -15 -23 -10 0
-15 -11 -15 -35 0 -23 5 -35 14 -35 11 0 15 -21 17 -86 4 -76 7 -88 28 -105
25 -21 62 -25 90 -10 27 15 17 68 -12 67 -20 -1 -22 5 -25 67 -3 66 -3 67 23
67 22 0 25 4 25 35 0 30 -3 35 -24 35 -22 0 -25 5 -28 45 l-3 44 -37 -21z"/>
<path d="M7712 14784 c-32 -22 -47 -54 -31 -65 22 -14 55 -10 69 7 17 19 64
14 68 -8 2 -12 -7 -18 -40 -23 -85 -14 -126 -52 -113 -103 15 -60 78 -87 134
-59 18 9 33 11 37 6 3 -5 23 -9 44 -9 38 0 39 1 30 26 -6 14 -10 63 -10 110 0
77 -2 87 -25 109 -20 21 -34 25 -82 25 -37 0 -67 -6 -81 -16z"/>
<path d="M7920 14792 c0 -6 20 -62 45 -126 25 -64 45 -125 45 -134 0 -25 -20
-42 -47 -42 -19 0 -23 -5 -23 -30 0 -23 5 -31 24 -36 38 -9 94 14 111 46 19
37 115 301 115 317 0 8 -14 13 -38 13 -38 0 -39 -1 -56 -57 -37 -118 -35 -117
-65 -28 l-28 80 -41 3 c-23 2 -42 -1 -42 -6z"/>
<path d="M8220 14664 l0 -135 36 3 36 3 2 87 c3 94 15 121 50 116 20 -3 21
-10 24 -105 l3 -103 39 0 40 0 0 83 c0 85 15 127 45 127 25 0 35 -36 35 -124
l0 -86 40 0 40 0 0 100 c0 105 -13 151 -45 164 -30 11 -80 6 -103 -10 -21 -15
-25 -15 -41 0 -21 19 -91 21 -110 4 -11 -10 -14 -10 -18 0 -3 6 -20 12 -39 12
l-34 0 0 -136z"/>
<path d="M8709 14785 c-53 -29 -74 -120 -45 -190 17 -40 68 -75 109 -75 40 0
92 24 111 51 23 33 21 37 -21 45 -28 5 -39 3 -49 -10 -18 -25 -65 -17 -75 12
-8 22 -7 22 76 22 l85 0 0 35 c0 43 -22 88 -52 109 -28 20 -104 20 -139 1z"/>
<path d="M8940 14665 l0 -135 40 0 40 0 0 88 c0 75 3 92 19 106 24 22 57 13
65 -17 3 -12 6 -57 6 -99 l0 -78 40 0 40 0 0 94 c0 101 -12 151 -40 166 -25
13 -87 13 -113 -1 -16 -9 -22 -9 -25 0 -2 6 -19 11 -38 11 l-34 0 0 -135z"/>
<path d="M9426 14779 c-20 -16 -26 -29 -26 -59 0 -48 28 -73 100 -90 59 -14
69 -25 39 -41 -23 -12 -69 1 -69 21 0 5 -16 10 -35 10 -46 0 -55 -23 -24 -56
50 -54 149 -56 201 -4 57 57 30 110 -73 140 -69 21 -83 40 -29 40 16 0 33 -7
37 -15 10 -18 83 -9 83 10 0 7 -14 25 -31 39 -41 35 -132 37 -173 5z"/>
<path d="M7485 9696 c-125 -55 -129 -280 -5 -344 51 -27 124 -25 167 3 25 17
63 72 63 92 0 16 -73 40 -78 25 -11 -34 -45 -62 -76 -62 -50 0 -77 35 -78 101
-2 71 8 96 42 114 42 22 58 19 90 -15 23 -25 33 -29 59 -24 41 8 45 17 26 54
-33 63 -133 90 -210 56z"/>
<path d="M8980 9650 c0 -57 -1 -60 -19 -50 -52 27 -124 4 -151 -48 -17 -33
-14 -125 4 -161 29 -54 99 -77 144 -45 12 8 22 10 22 5 0 -6 18 -11 40 -11
l40 0 -2 183 -3 182 -37 3 -38 3 0 -61z"/>
<path d="M8378 9678 c-27 -15 -38 -29 -38 -45 0 -14 -6 -23 -15 -23 -10 0 -15
-11 -15 -35 0 -23 5 -35 14 -35 11 0 15 -21 17 -86 4 -76 7 -88 28 -105 25
-21 62 -25 90 -10 27 15 17 68 -12 67 -20 -1 -22 5 -25 67 -3 66 -3 67 23 67
22 0 25 4 25 35 0 30 -3 35 -24 35 -22 0 -25 5 -28 45 l-3 44 -37 -21z"/>
<path d="M7760 9505 c0 -57 5 -115 11 -128 20 -44 81 -59 132 -33 15 8 27 11
27 5 0 -5 18 -9 40 -9 l41 0 -3 133 -3 132 -36 3 -37 3 -4 -90 c-4 -96 -16
-121 -53 -121 -30 0 -35 16 -35 121 l0 89 -40 0 -40 0 0 -105z"/>
<path d="M8086 9589 c-20 -16 -26 -29 -26 -59 0 -44 29 -74 83 -86 65 -14 80
-23 67 -39 -17 -21 -46 -19 -70 5 -24 24 -78 27 -87 4 -8 -21 34 -62 78 -75
51 -16 106 -3 141 31 57 57 30 110 -73 140 -69 21 -83 40 -29 40 16 0 33 -7
37 -15 10 -18 83 -9 83 10 0 7 -14 25 -31 39 -41 35 -132 37 -173 5z"/>
<path d="M8559 9593 c-40 -25 -62 -70 -62 -125 1 -76 44 -125 120 -135 89 -12
153 49 153 146 0 49 -3 57 -39 92 -35 36 -43 39 -92 39 -32 0 -65 -7 -80 -17z"/>
<path d="M9090 9601 c0 -6 20 -63 45 -127 25 -64 45 -124 45 -133 0 -24 -20
-41 -48 -41 -20 0 -23 -4 -20 -32 2 -25 8 -34 26 -36 39 -6 91 18 107 48 19
37 115 301 115 317 0 8 -14 13 -38 13 -38 0 -39 -1 -56 -57 -37 -118 -35 -117
-65 -28 l-28 80 -41 3 c-24 2 -42 -1 -42 -7z"/>
<path d="M8066 5032 c-44 -114 -88 -228 -98 -254 l-18 -48 44 0 44 0 24 73 25
72 101 3 100 3 29 -76 28 -75 42 0 c24 0 43 4 43 9 0 4 -43 113 -96 242 -53
129 -98 240 -101 247 -3 7 -23 12 -47 12 l-41 0 -79 -208z"/>
<path d="M8480 4985 l0 -255 40 0 40 0 0 255 0 255 -40 0 -40 0 0 -255z"/>
<path d="M1266 3782 c-10 -16 -136 -344 -136 -353 0 -6 19 -9 42 -7 37 3 42 6
53 38 l12 35 70 3 70 3 13 -41 c13 -39 15 -40 57 -40 23 0 43 3 43 8 0 4 -32
87 -71 185 l-71 177 -38 0 c-22 0 -41 -4 -44 -8z"/>
<path d="M2388 3755 c-21 -14 -38 -34 -38 -44 0 -11 -7 -21 -15 -25 -19 -7
-20 -52 -1 -63 8 -5 15 -37 19 -91 6 -91 14 -108 57 -117 46 -10 70 2 70 35 0
22 -5 29 -22 32 -21 3 -23 9 -26 71 -3 66 -3 67 23 67 22 0 25 4 25 35 0 30
-3 35 -24 35 -22 0 -25 5 -28 45 l-3 45 -37 -25z"/>
<path d="M1565 3678 c-31 -17 -45 -39 -45 -74 0 -41 32 -68 100 -84 54 -13 71
-27 49 -41 -24 -15 -58 -10 -71 11 -14 21 -52 26 -78 10 -13 -8 -12 -13 6 -37
44 -59 153 -66 206 -13 56 56 28 112 -69 138 -33 9 -61 22 -62 27 -2 15 48 18
66 3 17 -13 62 -12 77 2 5 5 -4 22 -22 39 -26 27 -37 31 -84 31 -29 0 -62 -6
-73 -12z"/>
<path d="M1835 3678 c-31 -17 -45 -39 -45 -74 0 -41 32 -68 100 -84 54 -13 71
-27 49 -41 -24 -15 -58 -10 -71 11 -14 21 -52 26 -78 10 -13 -8 -12 -13 6 -37
44 -59 153 -66 206 -13 56 56 28 112 -69 138 -33 9 -61 22 -62 27 -2 15 48 18
66 3 17 -13 62 -12 77 2 5 5 -4 22 -22 39 -26 27 -37 31 -84 31 -29 0 -62 -6
-73 -12z"/>
<path d="M2101 3665 c-55 -47 -66 -151 -20 -209 44 -56 155 -55 198 1 28 35
27 40 -14 47 -27 5 -39 2 -55 -14 -25 -25 -35 -25 -60 0 -34 34 -24 40 65 40
l85 0 0 30 c0 48 -25 97 -59 114 -46 24 -104 21 -140 -9z"/>
<path d="M11923 3425 c-39 -16 -53 -42 -53 -92 0 -52 36 -86 115 -108 33 -10
66 -23 74 -30 18 -18 7 -43 -24 -55 -38 -14 -73 -2 -91 31 -12 23 -21 29 -49
29 -41 0 -45 -5 -33 -47 24 -91 182 -124 258 -53 24 22 30 36 30 69 0 79 -27
105 -142 137 -45 12 -58 20 -58 35 0 38 93 37 105 -1 5 -16 15 -20 46 -20 34
0 39 3 39 23 0 30 -25 64 -60 82 -36 19 -115 19 -157 0z"/>
<path d="M14640 3380 c0 -57 -1 -60 -19 -50 -27 14 -92 12 -111 -3 -51 -39
-68 -144 -35 -207 28 -53 99 -75 143 -44 12 8 22 10 22 5 0 -6 18 -11 40 -11
l40 0 -2 183 -3 182 -37 3 -38 3 0 -61z"/>
<path d="M13590 3250 l0 -180 136 0 135 0 -3 33 -3 32 -87 3 -88 3 0 144 0
145 -45 0 -45 0 0 -180z"/>
<path d="M13240 3335 l0 -45 -45 0 -45 0 0 -40 0 -40 45 0 45 0 0 -45 c0 -45
0 -45 35 -45 35 0 35 0 35 44 l0 45 48 3 c47 3 47 3 47 38 0 35 0 35 -47 38
l-48 3 0 45 c0 44 0 44 -35 44 -35 0 -35 0 -35 -45z"/>
<path d="M12219 3311 c-37 -37 -37 -48 2 -56 22 -5 36 -2 49 10 22 20 64 16
68 -6 2 -12 -11 -19 -52 -28 -74 -16 -100 -39 -100 -84 0 -67 70 -106 133 -74
18 9 33 11 37 6 3 -5 23 -9 44 -9 38 0 39 1 30 26 -6 14 -10 63 -10 110 0 77
-2 87 -25 109 -20 21 -34 25 -85 25 -55 0 -65 -3 -91 -29z"/>
<path d="M12440 3333 c0 -5 23 -65 51 -135 l51 -128 37 0 36 0 51 130 c29 71
49 131 46 134 -3 4 -21 6 -39 6 -37 0 -35 3 -78 -114 l-18 -49 -29 81 -30 82
-39 0 c-21 0 -39 -3 -39 -7z"/>
<path d="M12787 3322 c-57 -35 -73 -152 -29 -211 44 -59 140 -64 194 -11 36
37 35 46 -7 54 -27 5 -39 2 -54 -13 -22 -22 -47 -19 -68 7 -23 28 -14 32 72
32 l85 0 0 35 c0 43 -22 88 -52 109 -30 21 -106 20 -141 -2z"/>
<path d="M13927 3322 c-57 -35 -73 -152 -29 -211 44 -59 140 -64 194 -11 36
37 35 46 -7 54 -27 5 -39 2 -54 -13 -25 -25 -60 -16 -72 17 -8 21 -6 22 76 22
l85 0 0 35 c0 43 -22 88 -52 109 -30 21 -106 20 -141 -2z"/>
<path d="M14170 3205 l0 -135 40 0 40 0 0 88 c0 73 3 92 18 105 49 44 72 10
72 -107 l0 -86 40 0 40 0 0 94 c0 101 -12 151 -40 166 -28 15 -93 12 -118 -6
-20 -14 -22 -14 -22 0 0 12 -10 16 -35 16 l-35 0 0 -135z"/>
<path d="M14780 3205 l0 -135 40 0 40 0 0 135 0 135 -40 0 -40 0 0 -135z"/>
<path d="M14910 3205 l0 -135 40 0 40 0 0 88 c0 75 3 92 19 106 24 22 57 13
65 -17 3 -12 6 -57 6 -99 l0 -78 40 0 40 0 0 94 c0 101 -12 151 -40 166 -28
15 -93 12 -118 -6 -20 -14 -22 -14 -22 0 0 12 -10 16 -35 16 l-35 0 0 -135z"/>
<path d="M15259 3327 c-40 -31 -53 -71 -50 -155 2 -51 56 -102 109 -102 23 0
44 5 47 10 10 16 25 11 25 -8 0 -40 -56 -56 -94 -27 -19 14 -86 21 -86 10 0
-3 6 -21 14 -40 12 -27 23 -36 58 -45 80 -22 164 6 179 61 4 13 7 88 8 167 l1
142 -34 0 c-19 0 -38 -5 -41 -10 -4 -7 -12 -7 -25 0 -26 14 -92 12 -111 -3z"/>
<path d="M7785 3260 c-3 -5 12 -86 35 -179 22 -94 40 -173 40 -176 0 -3 20 -5
44 -5 l45 0 15 53 c8 28 22 83 32 121 10 40 20 63 24 55 4 -8 20 -62 35 -121
l28 -108 43 0 c39 0 44 3 50 28 3 15 23 96 44 180 41 165 41 167 -17 160 -27
-3 -29 -6 -54 -117 l-25 -114 -30 114 -29 114 -43 3 c-40 3 -43 1 -56 -30 -8
-18 -22 -68 -32 -111 -10 -42 -21 -74 -25 -70 -4 5 -15 46 -24 93 -10 47 -21
93 -26 103 -10 18 -64 24 -74 7z"/>
<path d="M8567 3264 c-4 -4 -7 -88 -7 -186 l0 -178 40 0 40 0 -2 183 -3 182
-30 3 c-17 2 -34 0 -38 -4z"/>
<path d="M8697 3264 c-4 -4 -7 -88 -7 -186 l0 -178 40 0 40 0 -2 183 -3 182
-30 3 c-17 2 -34 0 -38 -4z"/>
<path d="M9138 3235 c-21 -14 -38 -34 -38 -44 0 -11 -7 -21 -15 -25 -19 -7
-20 -52 -1 -63 8 -5 15 -37 19 -91 6 -91 14 -108 57 -117 46 -10 70 2 70 35 0
22 -5 29 -22 32 -21 3 -23 9 -26 71 -3 66 -3 67 23 67 22 0 25 4 25 35 0 30
-3 35 -24 35 -22 0 -25 5 -28 45 l-3 45 -37 -25z"/>
<path d="M1167 3183 c-4 -3 -7 -87 -7 -185 l0 -178 40 0 40 0 1 108 1 107 18
-65 c44 -165 36 -150 79 -150 l39 0 30 118 30 117 1 -117 1 -118 40 0 40 0 -2
183 -3 182 -57 3 -56 3 -16 -53 c-8 -29 -20 -75 -27 -103 -6 -27 -15 -53 -18
-58 -4 -4 -18 34 -31 85 -32 128 -32 128 -89 128 -26 0 -51 -3 -54 -7z"/>
<path d="M4068 3155 c-21 -14 -38 -34 -38 -44 0 -11 -7 -21 -15 -25 -19 -7
-20 -52 -1 -63 8 -5 15 -37 19 -91 6 -91 14 -108 57 -117 46 -10 70 2 70 35 0
22 -5 29 -22 32 -21 3 -23 9 -26 71 -3 66 -3 67 23 67 22 0 25 4 25 35 0 30
-3 35 -24 35 -22 0 -25 5 -28 45 l-3 45 -37 -25z"/>
<path d="M8299 3141 c-37 -37 -37 -48 2 -56 22 -5 36 -2 49 10 22 20 64 16 68
-6 2 -12 -11 -19 -52 -28 -74 -16 -100 -39 -100 -84 0 -20 8 -45 18 -56 25
-27 80 -35 116 -17 17 8 32 10 36 5 3 -5 21 -9 41 -9 34 0 35 1 29 31 -3 17
-6 67 -6 111 0 70 -3 82 -25 103 -20 21 -34 25 -85 25 -55 0 -65 -3 -91 -29z"/>
<path d="M8861 3145 c-55 -47 -66 -151 -20 -209 44 -56 155 -55 198 1 28 35
27 40 -14 47 -27 5 -39 2 -55 -14 -25 -25 -35 -25 -60 0 -34 34 -24 40 65 40
l85 0 0 30 c0 48 -25 97 -59 114 -46 24 -104 21 -140 -9z"/>
<path d="M1599 3061 c-37 -37 -37 -48 2 -56 22 -5 36 -2 49 10 22 20 64 16 68
-6 2 -12 -11 -19 -52 -28 -74 -16 -100 -39 -100 -84 0 -20 8 -45 18 -56 25
-27 80 -35 116 -17 17 8 32 10 36 5 3 -5 21 -9 41 -9 34 0 35 1 29 31 -3 17
-6 67 -6 111 0 70 -3 82 -25 103 -20 21 -34 25 -85 25 -55 0 -65 -3 -91 -29z"/>
<path d="M1867 3083 c-4 -3 -7 -64 -7 -135 l0 -128 40 0 40 0 0 88 c0 73 3 92
18 105 49 44 72 10 72 -107 l0 -86 40 0 40 0 0 88 c0 98 -11 148 -37 168 -24
18 -94 17 -121 -2 -20 -14 -22 -14 -22 0 0 16 -49 23 -63 9z"/>
<path d="M2179 3061 c-37 -37 -37 -48 2 -56 22 -5 36 -2 49 10 22 20 64 16 68
-6 2 -12 -11 -19 -52 -28 -74 -16 -100 -39 -100 -84 0 -20 8 -45 18 -56 25
-27 80 -35 116 -17 17 8 32 10 36 5 3 -5 21 -9 41 -9 34 0 35 1 29 31 -3 17
-6 67 -6 111 0 70 -3 82 -25 103 -20 21 -34 25 -85 25 -55 0 -65 -3 -91 -29z"/>
<path d="M2454 3054 c-30 -31 -34 -42 -34 -90 0 -88 41 -144 105 -144 17 0 41
7 53 16 20 14 22 14 22 -5 0 -52 -38 -67 -96 -36 -44 23 -74 20 -74 -8 0 -55
102 -91 180 -64 59 21 71 58 68 222 l-3 140 -28 3 c-16 2 -34 -1 -40 -7 -8 -6
-18 -6 -27 -1 -8 6 -32 10 -54 10 -31 0 -45 -7 -72 -36z"/>
<path d="M2771 3065 c-55 -47 -66 -151 -20 -209 44 -56 155 -55 198 1 28 35
27 40 -14 47 -27 5 -39 2 -55 -14 -25 -25 -35 -25 -60 0 -34 34 -24 40 65 40
l85 0 0 30 c0 48 -25 97 -59 114 -46 24 -104 21 -140 -9z"/>
<path d="M3010 2955 l0 -135 34 0 34 0 4 89 c4 96 17 124 52 119 20 -3 21 -10
24 -105 l3 -103 39 0 40 0 0 84 c0 68 4 88 19 107 16 20 23 22 38 13 15 -9 18
-27 21 -108 l3 -96 39 0 40 0 0 94 c0 101 -12 151 -40 166 -28 15 -83 12 -108
-6 -20 -14 -24 -14 -44 0 -26 19 -71 21 -100 5 -14 -8 -23 -8 -31 0 -6 6 -24
11 -39 11 l-28 0 0 -135z"/>
<path d="M3481 3065 c-55 -47 -66 -151 -20 -209 44 -56 155 -55 198 1 28 35
27 40 -14 47 -27 5 -39 2 -55 -14 -25 -25 -35 -25 -60 0 -34 34 -24 40 65 40
l85 0 0 30 c0 48 -25 97 -59 114 -46 24 -104 21 -140 -9z"/>
<path d="M3737 3083 c-4 -3 -7 -64 -7 -135 l0 -128 40 0 40 0 0 88 c0 73 3 92
18 105 49 44 72 10 72 -107 l0 -86 40 0 40 0 0 88 c0 98 -11 148 -37 168 -24
18 -94 17 -121 -2 -20 -14 -22 -14 -22 0 0 16 -49 23 -63 9z"/>
<path d="M13037 2833 c-4 -3 -7 -87 -7 -185 l0 -178 115 0 c128 0 163 10 183
55 20 44 15 84 -16 114 -26 26 -26 28 -10 46 23 24 23 83 0 112 -9 12 -35 26
-57 32 -44 12 -198 15 -208 4z"/>
<path d="M12680 2735 l0 -45 -45 0 -45 0 0 -40 0 -40 45 0 45 0 0 -45 c0 -45
0 -45 35 -45 35 0 35 0 35 44 l0 45 48 3 c47 3 47 3 47 38 0 35 0 35 -47 38
l-48 3 0 45 c0 44 0 44 -35 44 -35 0 -35 0 -35 -45z"/>
<path d="M13439 2723 c-15 -9 -34 -29 -43 -44 -19 -32 -21 -114 -3 -148 45
-89 184 -92 238 -4 17 28 20 45 17 90 -4 49 -10 61 -41 90 -32 29 -43 33 -89
33 -31 0 -64 -7 -79 -17z"/>
<path d="M13700 2605 l0 -135 40 0 40 0 0 81 c0 98 11 123 49 116 25 -5 29 -2
38 28 9 27 8 35 -4 39 -25 10 -68 7 -81 -6 -9 -9 -12 -9 -12 0 0 7 -14 12 -35
12 l-35 0 0 -135z"/>
<path d="M13890 2605 l0 -135 40 0 40 0 0 81 c0 98 11 123 49 116 25 -5 29 -2
38 28 9 27 8 35 -4 39 -25 10 -68 7 -81 -6 -9 -9 -12 -9 -12 0 0 7 -14 12 -35
12 l-35 0 0 -135z"/>
<path d="M14139 2723 c-15 -9 -34 -29 -43 -44 -19 -32 -21 -114 -3 -148 31
-61 116 -87 182 -55 56 26 77 66 72 138 -3 53 -7 62 -40 92 -32 30 -43 34 -89
34 -31 0 -64 -7 -79 -17z"/>
<path d="M14360 2728 c0 -7 18 -67 39 -133 l38 -120 41 -3 40 -3 17 70 c9 39
18 71 20 71 2 0 11 -32 20 -71 l17 -70 40 3 41 3 38 120 c21 66 39 126 39 133
0 9 -11 12 -37 10 -36 -3 -37 -4 -58 -73 -24 -75 -26 -74 -48 15 -13 55 -13
55 -52 55 -36 0 -39 -3 -47 -35 -5 -19 -14 -53 -20 -75 l-11 -40 -21 75 c-21
75 -22 75 -59 78 -25 2 -37 -1 -37 -10z"/>
<path d="M14780 2605 l0 -135 40 0 40 0 0 135 0 135 -40 0 -40 0 0 -135z"/>
<path d="M14910 2605 l0 -135 40 0 40 0 0 88 c0 73 3 92 18 105 49 44 72 10
72 -107 l0 -86 40 0 40 0 0 94 c0 101 -12 151 -40 166 -28 15 -93 12 -118 -6
-20 -14 -22 -14 -22 0 0 12 -10 16 -35 16 l-35 0 0 -135z"/>
<path d="M15260 2727 c-37 -29 -50 -62 -50 -125 0 -59 2 -66 34 -98 27 -27 42
-34 73 -34 21 0 44 5 51 12 17 17 26 3 18 -27 -5 -19 -13 -25 -35 -25 -16 0
-42 7 -57 15 -28 14 -84 21 -84 10 0 -3 6 -21 14 -40 12 -27 23 -36 58 -45 80
-22 164 6 179 61 4 13 7 88 8 167 l1 142 -34 0 c-19 0 -38 -5 -41 -10 -4 -7
-12 -7 -25 0 -26 14 -92 12 -110 -3z"/>
<path d="M6057 1704 c-4 -4 -7 -88 -7 -186 l0 -178 45 0 45 0 0 58 c0 48 4 62
23 81 l24 22 47 -81 46 -80 50 0 c28 0 50 3 50 7 0 3 -30 53 -66 111 l-67 104
65 65 65 65 61 -97 62 -96 0 -80 0 -79 45 0 45 0 0 78 0 77 65 100 c35 55 60
104 56 108 -5 5 -26 7 -47 5 -36 -3 -41 -7 -74 -65 -19 -34 -38 -63 -42 -63
-4 0 -23 29 -43 65 l-36 64 -98 0 -99 0 -63 -71 -64 -72 -5 69 -5 70 -35 3
c-20 2 -39 0 -43 -4z"/>
<path d="M6825 1696 c-125 -55 -129 -280 -5 -344 51 -27 124 -25 167 3 25 17
63 72 63 92 0 16 -73 40 -78 25 -11 -34 -45 -62 -76 -62 -50 0 -77 35 -78 101
-2 71 8 96 42 114 42 22 58 19 90 -15 23 -25 33 -29 59 -24 41 8 45 17 26 54
-33 63 -133 90 -210 56z"/>
<path d="M7250 1533 c-23 -98 -43 -182 -44 -188 0 -5 13 -11 29 -13 l31 -3 42
178 c23 98 42 184 42 191 0 7 -13 12 -29 12 l-29 0 -42 -177z"/>
<path d="M7612 1693 c-16 -30 -132 -331 -132 -342 0 -6 18 -11 41 -11 38 0 42
2 56 40 l16 40 67 0 67 0 13 -40 c13 -39 15 -40 58 -40 54 0 56 -13 -32 205
l-64 160 -40 3 c-31 2 -43 -1 -50 -15z"/>
<path d="M7870 1525 l0 -185 40 0 40 0 1 108 1 107 27 -105 27 -105 41 -3 c47
-3 37 -22 82 148 l19 75 1 -112 1 -113 40 0 40 0 -2 183 -3 182 -59 0 -60 0
-13 -55 c-8 -30 -21 -80 -30 -110 l-16 -55 -9 35 c-5 19 -18 70 -30 113 l-20
77 -59 0 -59 0 0 -185z"/>
<path d="M8738 1704 c-5 -4 -8 -88 -8 -186 l0 -178 40 0 40 0 0 64 0 63 71 5
c59 5 75 10 99 33 48 46 46 127 -5 175 -22 20 -37 24 -127 28 -57 2 -106 1
-110 -4z"/>
<path d="M9060 1525 l0 -185 40 0 40 0 0 185 0 185 -40 0 -40 0 0 -185z"/>
<path d="M9670 1690 c-11 -11 -20 -33 -20 -50 0 -23 -4 -30 -20 -30 -16 0 -20
-7 -20 -35 0 -28 4 -35 20 -35 19 0 20 -7 20 -100 l0 -100 40 0 40 0 0 100 0
100 25 0 c22 0 25 4 25 35 0 31 -3 35 -26 35 -19 0 -25 4 -22 18 2 10 13 17
27 17 16 0 27 8 32 24 13 34 4 41 -52 41 -36 0 -54 -5 -69 -20z"/>
<path d="M8290 1520 l0 -180 136 0 135 0 -3 33 -3 32 -87 3 -88 3 0 144 0 145
-45 0 -45 0 0 -180z"/>
<path d="M9508 1678 c-27 -15 -38 -29 -38 -45 0 -14 -6 -23 -15 -23 -10 0 -15
-11 -15 -35 0 -23 5 -35 14 -35 11 0 15 -21 17 -86 4 -76 7 -88 28 -105 25
-21 62 -25 90 -10 27 15 17 68 -12 67 -20 -1 -22 5 -25 67 -3 66 -3 67 23 67
22 0 25 4 25 35 0 30 -3 35 -24 35 -22 0 -25 5 -28 45 l-3 44 -37 -21z"/>
<path d="M9232 1594 c-32 -22 -47 -54 -31 -65 23 -14 66 -10 73 7 8 21 60 15
64 -8 2 -12 -7 -18 -40 -23 -108 -18 -148 -79 -94 -141 19 -23 31 -28 67 -26
24 0 72 1 106 1 l63 1 -10 25 c-6 15 -10 66 -10 115 0 84 -1 90 -26 109 -33
26 -128 29 -162 5z"/>
<path d="M9849 1593 c-40 -25 -62 -70 -62 -125 1 -76 44 -125 120 -135 89 -12
153 49 153 146 0 49 -3 57 -39 92 -35 36 -43 39 -92 39 -32 0 -65 -7 -80 -17z"/>
<path d="M10110 1475 l0 -135 40 0 40 0 0 81 c0 99 11 123 50 115 26 -5 29 -2
37 27 6 24 9 -1 13 -93 l5 -125 40 0 40 0 5 90 c5 98 11 115 40 115 25 0 30
-19 30 -121 l0 -89 40 0 40 0 0 74 c0 83 11 123 36 133 31 12 44 -25 44 -119
l0 -88 40 0 40 0 0 100 c0 105 -13 151 -45 164 -30 11 -80 6 -103 -10 -21 -15
-25 -15 -41 0 -21 19 -92 21 -109 4 -10 -10 -15 -10 -20 -1 -9 14 -162 15
-179 1 -9 -7 -13 -7 -13 1 0 6 -16 11 -35 11 l-35 0 0 -135z"/>
<path d="M7850 530 l0 -190 109 0 c96 0 112 3 141 23 54 36 73 78 73 162 0 86
-22 139 -72 172 -30 20 -46 23 -142 23 l-109 0 0 -190z m165 110 c54 -12 65
-32 65 -111 0 -88 -17 -110 -88 -117 l-52 -5 0 122 c0 135 -4 130 75 111z"/>
<path d="M8553 688 c-23 -13 -33 -28 -33 -44 0 -15 -6 -24 -15 -24 -10 0 -15
-11 -15 -35 0 -23 5 -35 14 -35 10 0 15 -23 18 -91 4 -81 7 -94 27 -110 23
-19 65 -24 95 -13 10 4 16 18 16 41 0 30 -3 34 -22 31 -22 -3 -23 1 -26 70 -3
71 -3 72 23 72 22 0 25 4 25 35 0 31 -3 35 -25 35 -23 0 -25 4 -25 45 0 51 -8
54 -57 23z"/>
<path d="M8306 619 c-41 -7 -91 -50 -83 -72 2 -6 18 -14 35 -18 24 -5 35 -2
48 12 20 22 45 24 62 7 20 -20 14 -27 -25 -34 -68 -12 -111 -34 -123 -63 -33
-82 58 -150 143 -107 15 8 27 11 27 5 0 -5 21 -9 46 -9 40 0 45 2 38 18 -4 9
-10 63 -12 119 -3 83 -7 105 -23 119 -24 21 -83 32 -133 23z"/>
<path d="M8776 619 c-41 -7 -91 -50 -83 -72 2 -6 18 -14 35 -18 24 -5 35 -2
48 12 20 22 45 24 62 7 20 -20 14 -27 -25 -34 -68 -12 -111 -34 -123 -63 -33
-82 58 -150 143 -107 15 8 27 11 27 5 0 -5 21 -9 46 -9 40 0 45 2 38 18 -4 9
-10 63 -12 119 -3 83 -7 105 -23 119 -24 21 -83 32 -133 23z"/>
</g>
</svg>
